<mxfile host="app.diagrams.net" agent="Mozilla/5.0 (X11; Linux x86_64; rv:109.0) Gecko/20100101 Firefox/115.0" version="26.0.6" pages="4">
  <diagram name="ppl1" id="7KTaMBhgqVzbro8H5_XD">
    <mxGraphModel dx="2066" dy="2314" grid="1" gridSize="10" guides="1" tooltips="1" connect="1" arrows="1" fold="1" page="1" pageScale="1" pageWidth="850" pageHeight="1100" math="0" shadow="0">
      <root>
        <mxCell id="0" />
        <mxCell id="1" parent="0" />
        <mxCell id="EudtSMNAYD2UXil9M96t-14" value="" style="edgeStyle=none;curved=1;rounded=0;orthogonalLoop=1;jettySize=auto;html=1;fontSize=12;startSize=8;endSize=8;fillColor=#f8cecc;strokeColor=#b85450;" parent="1" source="EudtSMNAYD2UXil9M96t-3" target="EudtSMNAYD2UXil9M96t-13" edge="1">
          <mxGeometry relative="1" as="geometry" />
        </mxCell>
        <mxCell id="EudtSMNAYD2UXil9M96t-26" value="fail" style="edgeLabel;html=1;align=center;verticalAlign=middle;resizable=0;points=[];fontSize=12;" parent="EudtSMNAYD2UXil9M96t-14" vertex="1" connectable="0">
          <mxGeometry x="-0.1326" y="-2" relative="1" as="geometry">
            <mxPoint as="offset" />
          </mxGeometry>
        </mxCell>
        <mxCell id="EudtSMNAYD2UXil9M96t-3" value="COLLECT" style="whiteSpace=wrap;html=1;rounded=0;fillColor=#d5e8d4;strokeColor=#82b366;" parent="1" vertex="1">
          <mxGeometry x="1080" y="920" width="120" height="60" as="geometry" />
        </mxCell>
        <mxCell id="JNSrJHHTEGONHWkqj-x3-166" value="" style="endArrow=none;dashed=1;html=1;rounded=0;fontSize=12;startSize=8;endSize=8;curved=1;" parent="1" edge="1">
          <mxGeometry width="50" height="50" relative="1" as="geometry">
            <mxPoint x="1010" y="1390" as="sourcePoint" />
            <mxPoint x="1010" y="200" as="targetPoint" />
          </mxGeometry>
        </mxCell>
        <mxCell id="JNSrJHHTEGONHWkqj-x3-173" style="edgeStyle=none;curved=1;rounded=0;orthogonalLoop=1;jettySize=auto;html=1;entryX=0.5;entryY=0;entryDx=0;entryDy=0;fontSize=12;startSize=8;endSize=8;endArrow=none;endFill=0;startArrow=block;startFill=0;" parent="1" source="JNSrJHHTEGONHWkqj-x3-54" target="JNSrJHHTEGONHWkqj-x3-53" edge="1">
          <mxGeometry relative="1" as="geometry" />
        </mxCell>
        <mxCell id="JNSrJHHTEGONHWkqj-x3-54" value="&lt;div&gt;JobCfg&lt;/div&gt;&lt;div&gt;状态管理&lt;/div&gt;" style="html=1;whiteSpace=wrap;fillColor=#f5f5f5;strokeColor=#666666;fontColor=#333333;" parent="1" vertex="1">
          <mxGeometry x="1210" y="390.08" width="110" height="50" as="geometry" />
        </mxCell>
        <mxCell id="JNSrJHHTEGONHWkqj-x3-60" value="" style="edgeStyle=orthogonalEdgeStyle;rounded=0;orthogonalLoop=1;jettySize=auto;html=1;fontSize=12;startSize=8;endSize=8;endArrow=none;endFill=0;startArrow=block;startFill=0;" parent="1" source="JNSrJHHTEGONHWkqj-x3-55" target="JNSrJHHTEGONHWkqj-x3-54" edge="1">
          <mxGeometry relative="1" as="geometry" />
        </mxCell>
        <mxCell id="JNSrJHHTEGONHWkqj-x3-55" value="&lt;div&gt;Jid&lt;/div&gt;&lt;div&gt;名称处理&lt;br&gt;&lt;/div&gt;" style="html=1;whiteSpace=wrap;fillColor=#f5f5f5;fontColor=#333333;strokeColor=#666666;" parent="1" vertex="1">
          <mxGeometry x="1210" y="300.08" width="110" height="50" as="geometry" />
        </mxCell>
        <mxCell id="JNSrJHHTEGONHWkqj-x3-89" value="" style="edgeStyle=none;curved=1;rounded=0;orthogonalLoop=1;jettySize=auto;html=1;fontSize=12;startSize=8;endSize=8;endArrow=none;endFill=0;exitX=1;exitY=0.5;exitDx=0;exitDy=0;entryX=0;entryY=0.5;entryDx=0;entryDy=0;startArrow=open;startFill=0;" parent="1" source="JNSrJHHTEGONHWkqj-x3-56" target="JNSrJHHTEGONHWkqj-x3-53" edge="1">
          <mxGeometry relative="1" as="geometry" />
        </mxCell>
        <mxCell id="JNSrJHHTEGONHWkqj-x3-64" style="rounded=0;orthogonalLoop=1;jettySize=auto;html=1;entryX=0;entryY=0.5;entryDx=0;entryDy=0;fontSize=12;startSize=8;endSize=8;endArrow=open;endFill=0;exitX=1;exitY=0.5;exitDx=0;exitDy=0;" parent="1" source="JNSrJHHTEGONHWkqj-x3-57" target="JNSrJHHTEGONHWkqj-x3-56" edge="1">
          <mxGeometry relative="1" as="geometry" />
        </mxCell>
        <mxCell id="JNSrJHHTEGONHWkqj-x3-93" style="edgeStyle=none;curved=1;rounded=0;orthogonalLoop=1;jettySize=auto;html=1;exitX=1;exitY=0.5;exitDx=0;exitDy=0;entryX=0.5;entryY=1;entryDx=0;entryDy=0;fontSize=12;startSize=8;endSize=8;endArrow=open;endFill=0;" parent="1" source="JNSrJHHTEGONHWkqj-x3-57" target="JNSrJHHTEGONHWkqj-x3-54" edge="1">
          <mxGeometry relative="1" as="geometry" />
        </mxCell>
        <mxCell id="JNSrJHHTEGONHWkqj-x3-57" value="&lt;div&gt;Scheduler&lt;/div&gt;" style="html=1;whiteSpace=wrap;fillColor=#dae8fc;strokeColor=#6c8ebf;" parent="1" vertex="1">
          <mxGeometry x="620" y="550.0699999999999" width="110" height="50" as="geometry" />
        </mxCell>
        <mxCell id="JNSrJHHTEGONHWkqj-x3-258" value="" style="edgeStyle=none;curved=1;rounded=0;orthogonalLoop=1;jettySize=auto;html=1;fontSize=12;startSize=8;endSize=8;endArrow=block;endFill=0;" parent="1" source="JNSrJHHTEGONHWkqj-x3-90" target="JNSrJHHTEGONHWkqj-x3-54" edge="1">
          <mxGeometry relative="1" as="geometry" />
        </mxCell>
        <mxCell id="JNSrJHHTEGONHWkqj-x3-90" value="&lt;div&gt;JobCfgEntry&lt;/div&gt;&lt;div&gt;进度统计&lt;br&gt;&lt;/div&gt;" style="html=1;whiteSpace=wrap;fillColor=#f5f5f5;strokeColor=#666666;fontColor=#333333;" parent="1" vertex="1">
          <mxGeometry x="1050" y="390.08000000000004" width="110" height="50" as="geometry" />
        </mxCell>
        <mxCell id="JNSrJHHTEGONHWkqj-x3-171" value="调度器" style="text;html=1;align=center;verticalAlign=middle;resizable=0;points=[];autosize=1;strokeColor=#2D7600;fillColor=#60a917;fontSize=16;fontColor=#ffffff;" parent="1" vertex="1">
          <mxGeometry x="770" y="232" width="70" height="30" as="geometry" />
        </mxCell>
        <mxCell id="JNSrJHHTEGONHWkqj-x3-172" value="任务" style="text;html=1;align=center;verticalAlign=middle;resizable=0;points=[];autosize=1;strokeColor=#2D7600;fillColor=#60a917;fontSize=16;fontColor=#ffffff;" parent="1" vertex="1">
          <mxGeometry x="1230" y="232" width="60" height="30" as="geometry" />
        </mxCell>
        <mxCell id="JNSrJHHTEGONHWkqj-x3-175" value="" style="group;" parent="1" vertex="1" connectable="0">
          <mxGeometry x="850" y="549.9300000000001" width="110" height="140" as="geometry" />
        </mxCell>
        <mxCell id="JNSrJHHTEGONHWkqj-x3-56" value="&lt;div&gt;Proc&lt;/div&gt;运行态系统信息" style="html=1;whiteSpace=wrap;fillColor=#f5f5f5;strokeColor=#666666;fontColor=#333333;" parent="JNSrJHHTEGONHWkqj-x3-175" vertex="1">
          <mxGeometry width="110" height="50" as="geometry" />
        </mxCell>
        <mxCell id="JNSrJHHTEGONHWkqj-x3-108" value="&lt;div style=&quot;font-size: 12px;&quot;&gt;&lt;b&gt;core_id&lt;/b&gt;&lt;/div&gt;&lt;div style=&quot;font-size: 12px;&quot;&gt;jid&lt;/div&gt;&lt;div style=&quot;font-size: 12px;&quot;&gt;pid&lt;/div&gt;&lt;div style=&quot;font-size: 12px;&quot;&gt;hdd&lt;/div&gt;&lt;div style=&quot;font-size: 12px;&quot;&gt;ssd&lt;br style=&quot;font-size: 12px;&quot;&gt;&lt;/div&gt;" style="text;html=1;align=left;verticalAlign=middle;resizable=0;points=[];autosize=1;strokeColor=none;fillColor=none;fontSize=12;" parent="JNSrJHHTEGONHWkqj-x3-175" vertex="1">
          <mxGeometry y="50" width="70" height="90" as="geometry" />
        </mxCell>
        <mxCell id="JNSrJHHTEGONHWkqj-x3-176" value="" style="group;" parent="1" vertex="1" connectable="0">
          <mxGeometry x="1210" y="549.9300000000001" width="110" height="80" as="geometry" />
        </mxCell>
        <mxCell id="JNSrJHHTEGONHWkqj-x3-53" value="&lt;div&gt;Job&lt;/div&gt;&lt;div&gt;运行实例&lt;/div&gt;&lt;div&gt;可复用的执行逻辑&lt;br&gt;&lt;/div&gt;" style="html=1;whiteSpace=wrap;fillColor=#dae8fc;strokeColor=#6c8ebf;" parent="JNSrJHHTEGONHWkqj-x3-176" vertex="1">
          <mxGeometry width="110" height="50" as="geometry" />
        </mxCell>
        <mxCell id="JNSrJHHTEGONHWkqj-x3-111" value="execute()" style="text;html=1;align=left;verticalAlign=middle;resizable=0;points=[];autosize=1;strokeColor=none;fillColor=none;fontSize=12;" parent="JNSrJHHTEGONHWkqj-x3-176" vertex="1">
          <mxGeometry y="50" width="70" height="30" as="geometry" />
        </mxCell>
        <mxCell id="JNSrJHHTEGONHWkqj-x3-199" value="" style="endArrow=none;html=1;rounded=0;fontSize=12;startSize=8;endSize=8;curved=1;" parent="1" edge="1">
          <mxGeometry width="50" height="50" relative="1" as="geometry">
            <mxPoint x="547" y="833" as="sourcePoint" />
            <mxPoint x="2257" y="833" as="targetPoint" />
          </mxGeometry>
        </mxCell>
        <mxCell id="JNSrJHHTEGONHWkqj-x3-210" value="&lt;div&gt;CollectStep&lt;/div&gt;&lt;div&gt;执行逻辑&lt;br&gt;&lt;/div&gt;" style="html=1;whiteSpace=wrap;fillColor=#d5e8d4;strokeColor=#82b366;" parent="1" vertex="1">
          <mxGeometry x="1468" y="710" width="110" height="50" as="geometry" />
        </mxCell>
        <mxCell id="JNSrJHHTEGONHWkqj-x3-217" style="edgeStyle=orthogonalEdgeStyle;rounded=0;orthogonalLoop=1;jettySize=auto;html=1;exitX=0.5;exitY=0;exitDx=0;exitDy=0;fontSize=12;startSize=8;endSize=8;endArrow=block;endFill=0;" parent="1" source="JNSrJHHTEGONHWkqj-x3-211" target="JNSrJHHTEGONHWkqj-x3-203" edge="1">
          <mxGeometry relative="1" as="geometry" />
        </mxCell>
        <mxCell id="JNSrJHHTEGONHWkqj-x3-211" value="TrainStep" style="html=1;whiteSpace=wrap;fillColor=#d5e8d4;strokeColor=#82b366;" parent="1" vertex="1">
          <mxGeometry x="1708" y="710" width="110" height="50" as="geometry" />
        </mxCell>
        <mxCell id="JNSrJHHTEGONHWkqj-x3-232" style="edgeStyle=elbowEdgeStyle;rounded=0;orthogonalLoop=1;jettySize=auto;html=1;fontSize=12;startSize=8;endSize=8;elbow=vertical;endArrow=block;endFill=0;" parent="1" source="JNSrJHHTEGONHWkqj-x3-231" target="JNSrJHHTEGONHWkqj-x3-203" edge="1">
          <mxGeometry relative="1" as="geometry" />
        </mxCell>
        <mxCell id="JNSrJHHTEGONHWkqj-x3-231" value="&lt;div&gt;PredStep&lt;/div&gt;" style="html=1;whiteSpace=wrap;fillColor=#d5e8d4;strokeColor=#82b366;" parent="1" vertex="1">
          <mxGeometry x="1948" y="710" width="110" height="50" as="geometry" />
        </mxCell>
        <mxCell id="JNSrJHHTEGONHWkqj-x3-216" value="" style="edgeStyle=none;curved=1;rounded=0;orthogonalLoop=1;jettySize=auto;html=1;fontSize=12;startSize=8;endSize=8;startArrow=block;startFill=0;endArrow=none;endFill=0;" parent="1" source="JNSrJHHTEGONHWkqj-x3-203" target="JNSrJHHTEGONHWkqj-x3-210" edge="1">
          <mxGeometry relative="1" as="geometry" />
        </mxCell>
        <mxCell id="JNSrJHHTEGONHWkqj-x3-221" value="" style="endArrow=none;dashed=1;html=1;rounded=0;fontSize=12;startSize=8;endSize=8;curved=1;" parent="1" edge="1">
          <mxGeometry width="50" height="50" relative="1" as="geometry">
            <mxPoint x="1400" y="800" as="sourcePoint" />
            <mxPoint x="1400" y="200" as="targetPoint" />
          </mxGeometry>
        </mxCell>
        <mxCell id="JNSrJHHTEGONHWkqj-x3-222" style="edgeStyle=none;curved=1;rounded=0;orthogonalLoop=1;jettySize=auto;html=1;exitX=1;exitY=0.5;exitDx=0;exitDy=0;entryX=0;entryY=0.5;entryDx=0;entryDy=0;fontSize=12;startSize=8;endSize=8;endArrow=none;endFill=0;startArrow=open;startFill=0;" parent="1" source="JNSrJHHTEGONHWkqj-x3-53" target="JNSrJHHTEGONHWkqj-x3-203" edge="1">
          <mxGeometry relative="1" as="geometry" />
        </mxCell>
        <mxCell id="JNSrJHHTEGONHWkqj-x3-225" value="步骤" style="text;html=1;align=center;verticalAlign=middle;resizable=0;points=[];autosize=1;strokeColor=#2D7600;fillColor=#60a917;fontSize=16;fontColor=#ffffff;" parent="1" vertex="1">
          <mxGeometry x="1575" y="232" width="60" height="30" as="geometry" />
        </mxCell>
        <mxCell id="JNSrJHHTEGONHWkqj-x3-233" value="" style="group;" parent="1" vertex="1" connectable="0">
          <mxGeometry x="1468" y="550.0700000000002" width="110" height="84.92999999999984" as="geometry" />
        </mxCell>
        <mxCell id="JNSrJHHTEGONHWkqj-x3-203" value="&lt;div&gt;Step&lt;/div&gt;&lt;div&gt;&lt;i&gt;empty&lt;/i&gt;&lt;/div&gt;" style="html=1;whiteSpace=wrap;fillColor=#d5e8d4;strokeColor=#82b366;" parent="JNSrJHHTEGONHWkqj-x3-233" vertex="1">
          <mxGeometry width="110" height="50" as="geometry" />
        </mxCell>
        <mxCell id="JNSrJHHTEGONHWkqj-x3-207" value="&lt;div&gt;execute()&lt;/div&gt;&lt;div&gt;finish()&lt;br&gt;&lt;/div&gt;" style="text;html=1;align=left;verticalAlign=middle;resizable=0;points=[];autosize=1;strokeColor=none;fillColor=none;fontSize=12;" parent="JNSrJHHTEGONHWkqj-x3-233" vertex="1">
          <mxGeometry y="44.929999999999836" width="70" height="40" as="geometry" />
        </mxCell>
        <mxCell id="JNSrJHHTEGONHWkqj-x3-196" value="&lt;br&gt;&lt;div&gt;SQLiteDB&lt;/div&gt;" style="html=1;whiteSpace=wrap;fillColor=#f5f5f5;strokeColor=#666666;fontColor=#333333;strokeWidth=2;shape=mxgraph.flowchart.database;" parent="1" vertex="1">
          <mxGeometry x="1210" y="710" width="110" height="50" as="geometry" />
        </mxCell>
        <mxCell id="JNSrJHHTEGONHWkqj-x3-236" value="" style="group;" parent="1" vertex="1" connectable="0">
          <mxGeometry x="1040" y="38" width="360" height="113" as="geometry" />
        </mxCell>
        <mxCell id="JNSrJHHTEGONHWkqj-x3-226" value="" style="rounded=0;whiteSpace=wrap;html=1;" parent="JNSrJHHTEGONHWkqj-x3-236" vertex="1">
          <mxGeometry width="360" height="113" as="geometry" />
        </mxCell>
        <mxCell id="JNSrJHHTEGONHWkqj-x3-174" value="" style="group;" parent="JNSrJHHTEGONHWkqj-x3-236" vertex="1" connectable="0">
          <mxGeometry x="40" y="23" width="110" height="90" as="geometry" />
        </mxCell>
        <mxCell id="JNSrJHHTEGONHWkqj-x3-44" value="Resources&lt;br&gt;&lt;div&gt;singleton&lt;br&gt;&lt;/div&gt;" style="html=1;whiteSpace=wrap;fillColor=#f5f5f5;strokeColor=#666666;fontColor=#333333;" parent="JNSrJHHTEGONHWkqj-x3-174" vertex="1">
          <mxGeometry width="110" height="50" as="geometry" />
        </mxCell>
        <mxCell id="JNSrJHHTEGONHWkqj-x3-107" value="&lt;div style=&quot;font-size: 12px;&quot;&gt;&lt;b&gt;cpu_map&lt;/b&gt;&lt;/div&gt;&lt;div style=&quot;font-size: 12px;&quot;&gt;ssd&lt;br style=&quot;font-size: 12px;&quot;&gt;&lt;/div&gt;" style="text;html=1;align=left;verticalAlign=middle;resizable=0;points=[];autosize=1;strokeColor=none;fillColor=none;fontSize=12;" parent="JNSrJHHTEGONHWkqj-x3-174" vertex="1">
          <mxGeometry y="50" width="80" height="40" as="geometry" />
        </mxCell>
        <mxCell id="JNSrJHHTEGONHWkqj-x3-195" value="Data File" style="html=1;whiteSpace=wrap;fillColor=#f5f5f5;strokeColor=#666666;shape=card;fontColor=#333333;" parent="JNSrJHHTEGONHWkqj-x3-236" vertex="1">
          <mxGeometry x="205" y="23" width="110" height="50" as="geometry" />
        </mxCell>
        <mxCell id="JNSrJHHTEGONHWkqj-x3-237" style="edgeStyle=none;curved=1;rounded=0;orthogonalLoop=1;jettySize=auto;html=1;exitX=0.5;exitY=1;exitDx=0;exitDy=0;entryX=0.5;entryY=0;entryDx=0;entryDy=0;fontSize=12;startSize=8;endSize=8;endArrow=open;endFill=0;" parent="1" source="JNSrJHHTEGONHWkqj-x3-53" target="JNSrJHHTEGONHWkqj-x3-196" edge="1">
          <mxGeometry relative="1" as="geometry" />
        </mxCell>
        <mxCell id="JNSrJHHTEGONHWkqj-x3-240" value="" style="endArrow=classic;startArrow=classic;html=1;rounded=0;fontSize=12;curved=1;shape=flexArrow;" parent="1" edge="1">
          <mxGeometry width="50" height="50" relative="1" as="geometry">
            <mxPoint x="1400" y="890" as="sourcePoint" />
            <mxPoint x="1732.29" y="780" as="targetPoint" />
          </mxGeometry>
        </mxCell>
        <mxCell id="JNSrJHHTEGONHWkqj-x3-257" style="edgeStyle=none;curved=1;rounded=0;orthogonalLoop=1;jettySize=auto;html=1;exitX=1;exitY=0.5;exitDx=0;exitDy=0;entryX=0;entryY=0.5;entryDx=0;entryDy=0;fontSize=12;startSize=8;endSize=8;endArrow=open;endFill=0;" parent="1" source="JNSrJHHTEGONHWkqj-x3-255" target="JNSrJHHTEGONHWkqj-x3-90" edge="1">
          <mxGeometry relative="1" as="geometry" />
        </mxCell>
        <mxCell id="JNSrJHHTEGONHWkqj-x3-255" value="&lt;div&gt;JobList&lt;/div&gt;&lt;div&gt;&lt;i&gt;monitor&lt;/i&gt;&lt;br&gt;&lt;/div&gt;" style="html=1;whiteSpace=wrap;fillColor=#dae8fc;strokeColor=#6c8ebf;" parent="1" vertex="1">
          <mxGeometry x="620" y="390.08000000000015" width="110" height="50" as="geometry" />
        </mxCell>
        <mxCell id="JNSrJHHTEGONHWkqj-x3-259" style="edgeStyle=none;curved=1;rounded=0;orthogonalLoop=1;jettySize=auto;html=1;exitX=1;exitY=0.5;exitDx=0;exitDy=0;fontSize=12;startSize=8;endSize=8;dashed=1;" parent="1" source="JNSrJHHTEGONHWkqj-x3-54" target="JNSrJHHTEGONHWkqj-x3-195" edge="1">
          <mxGeometry relative="1" as="geometry">
            <Array as="points">
              <mxPoint x="1360" y="248" />
            </Array>
          </mxGeometry>
        </mxCell>
        <mxCell id="JNSrJHHTEGONHWkqj-x3-261" value="流程图" style="text;html=1;align=center;verticalAlign=middle;resizable=0;points=[];autosize=1;strokeColor=none;fillColor=none;fontSize=16;" parent="1" vertex="1">
          <mxGeometry x="547" y="840" width="70" height="30" as="geometry" />
        </mxCell>
        <mxCell id="JNSrJHHTEGONHWkqj-x3-262" value="&lt;div&gt;类图&lt;/div&gt;" style="text;html=1;align=center;verticalAlign=middle;resizable=0;points=[];autosize=1;strokeColor=none;fillColor=none;fontSize=16;" parent="1" vertex="1">
          <mxGeometry x="547" y="800" width="60" height="30" as="geometry" />
        </mxCell>
        <mxCell id="EudtSMNAYD2UXil9M96t-4" value="" style="edgeStyle=none;curved=1;rounded=0;orthogonalLoop=1;jettySize=auto;html=1;fontSize=12;startSize=8;endSize=8;fillColor=#dae8fc;strokeColor=#6c8ebf;exitX=1;exitY=0;exitDx=0;exitDy=0;" parent="1" source="EudtSMNAYD2UXil9M96t-18" target="EudtSMNAYD2UXil9M96t-3" edge="1">
          <mxGeometry relative="1" as="geometry" />
        </mxCell>
        <mxCell id="EudtSMNAYD2UXil9M96t-24" value="pop" style="edgeLabel;html=1;align=center;verticalAlign=middle;resizable=0;points=[];fontSize=12;labelBorderColor=none;textShadow=0;" parent="EudtSMNAYD2UXil9M96t-4" vertex="1" connectable="0">
          <mxGeometry x="-0.1105" y="-2" relative="1" as="geometry">
            <mxPoint x="17" y="-2" as="offset" />
          </mxGeometry>
        </mxCell>
        <mxCell id="EudtSMNAYD2UXil9M96t-6" value="" style="edgeStyle=none;curved=1;rounded=0;orthogonalLoop=1;jettySize=auto;html=1;fontSize=12;startSize=8;endSize=8;fillColor=#d5e8d4;strokeColor=#82b366;" parent="1" source="EudtSMNAYD2UXil9M96t-3" target="EudtSMNAYD2UXil9M96t-5" edge="1">
          <mxGeometry relative="1" as="geometry" />
        </mxCell>
        <mxCell id="EudtSMNAYD2UXil9M96t-27" value="next" style="edgeLabel;html=1;align=center;verticalAlign=middle;resizable=0;points=[];fontSize=12;" parent="EudtSMNAYD2UXil9M96t-6" vertex="1" connectable="0">
          <mxGeometry x="-0.2167" y="1" relative="1" as="geometry">
            <mxPoint x="13" y="1" as="offset" />
          </mxGeometry>
        </mxCell>
        <mxCell id="EudtSMNAYD2UXil9M96t-8" value="" style="edgeStyle=none;curved=1;rounded=0;orthogonalLoop=1;jettySize=auto;html=1;fontSize=12;startSize=8;endSize=8;fillColor=#d5e8d4;strokeColor=#82b366;" parent="1" source="EudtSMNAYD2UXil9M96t-5" target="EudtSMNAYD2UXil9M96t-7" edge="1">
          <mxGeometry relative="1" as="geometry" />
        </mxCell>
        <mxCell id="EudtSMNAYD2UXil9M96t-5" value="TRAIN" style="whiteSpace=wrap;html=1;rounded=0;fillColor=#d5e8d4;strokeColor=#82b366;" parent="1" vertex="1">
          <mxGeometry x="1320" y="920" width="120" height="60" as="geometry" />
        </mxCell>
        <mxCell id="EudtSMNAYD2UXil9M96t-10" value="" style="edgeStyle=none;curved=1;rounded=0;orthogonalLoop=1;jettySize=auto;html=1;fontSize=12;startSize=8;endSize=8;fillColor=#d5e8d4;strokeColor=#82b366;" parent="1" source="EudtSMNAYD2UXil9M96t-7" target="EudtSMNAYD2UXil9M96t-9" edge="1">
          <mxGeometry relative="1" as="geometry" />
        </mxCell>
        <mxCell id="EudtSMNAYD2UXil9M96t-7" value="PRED" style="whiteSpace=wrap;html=1;rounded=0;fillColor=#d5e8d4;strokeColor=#82b366;" parent="1" vertex="1">
          <mxGeometry x="1560" y="920" width="120" height="60" as="geometry" />
        </mxCell>
        <mxCell id="EudtSMNAYD2UXil9M96t-9" value="DONE" style="whiteSpace=wrap;html=1;rounded=0;fillColor=#ffe6cc;strokeColor=#d79b00;" parent="1" vertex="1">
          <mxGeometry x="1800" y="920" width="120" height="60" as="geometry" />
        </mxCell>
        <mxCell id="EudtSMNAYD2UXil9M96t-129" style="edgeStyle=none;curved=1;rounded=0;orthogonalLoop=1;jettySize=auto;html=1;fontSize=12;startSize=8;endSize=8;fillColor=#e1d5e7;strokeColor=#9673a6;" parent="1" source="EudtSMNAYD2UXil9M96t-13" target="EudtSMNAYD2UXil9M96t-18" edge="1">
          <mxGeometry relative="1" as="geometry" />
        </mxCell>
        <mxCell id="EudtSMNAYD2UXil9M96t-13" value="ERR" style="whiteSpace=wrap;html=1;rounded=0;fillColor=#f8cecc;strokeColor=#b85450;" parent="1" vertex="1">
          <mxGeometry x="1080" y="1100" width="120" height="60" as="geometry" />
        </mxCell>
        <mxCell id="EudtSMNAYD2UXil9M96t-113" value="personnel" style="shape=umlActor;verticalLabelPosition=bottom;verticalAlign=top;html=1;outlineConnect=0;fillColor=#e1d5e7;strokeColor=#9673a6;" parent="1" vertex="1">
          <mxGeometry x="960" y="1050" width="30" height="60" as="geometry" />
        </mxCell>
        <mxCell id="EudtSMNAYD2UXil9M96t-120" style="edgeStyle=none;curved=1;rounded=0;orthogonalLoop=1;jettySize=auto;html=1;exitX=1;exitY=1;exitDx=0;exitDy=0;exitPerimeter=0;fontSize=12;startSize=8;endSize=8;" parent="1" source="EudtSMNAYD2UXil9M96t-113" target="EudtSMNAYD2UXil9M96t-113" edge="1">
          <mxGeometry relative="1" as="geometry" />
        </mxCell>
        <mxCell id="EudtSMNAYD2UXil9M96t-122" style="edgeStyle=none;curved=1;rounded=0;orthogonalLoop=1;jettySize=auto;html=1;entryX=0;entryY=1;entryDx=0;entryDy=0;fontSize=12;startSize=8;endSize=8;fillColor=#dae8fc;strokeColor=#6c8ebf;" parent="1" source="EudtSMNAYD2UXil9M96t-121" target="EudtSMNAYD2UXil9M96t-1" edge="1">
          <mxGeometry relative="1" as="geometry" />
        </mxCell>
        <mxCell id="EudtSMNAYD2UXil9M96t-125" value="push" style="edgeLabel;html=1;align=center;verticalAlign=middle;resizable=0;points=[];fontSize=12;" parent="EudtSMNAYD2UXil9M96t-122" vertex="1" connectable="0">
          <mxGeometry x="-0.0952" y="3" relative="1" as="geometry">
            <mxPoint y="3" as="offset" />
          </mxGeometry>
        </mxCell>
        <mxCell id="EudtSMNAYD2UXil9M96t-121" value="/path/to/new/cfg" style="ellipse;whiteSpace=wrap;html=1;" parent="1" vertex="1">
          <mxGeometry x="600" y="920" width="120" height="60" as="geometry" />
        </mxCell>
        <mxCell id="EudtSMNAYD2UXil9M96t-127" value="" style="group;" parent="1" vertex="1" connectable="0">
          <mxGeometry x="840" y="920" width="120" height="60" as="geometry" />
        </mxCell>
        <mxCell id="EudtSMNAYD2UXil9M96t-1" value="&lt;div&gt;TODO&lt;/div&gt;" style="rounded=0;whiteSpace=wrap;html=1;fillColor=#dae8fc;strokeColor=#6c8ebf;" parent="EudtSMNAYD2UXil9M96t-127" vertex="1">
          <mxGeometry width="120" height="30" as="geometry" />
        </mxCell>
        <mxCell id="EudtSMNAYD2UXil9M96t-18" value="PRIORITY" style="rounded=0;whiteSpace=wrap;html=1;fillColor=#dae8fc;strokeColor=#6c8ebf;" parent="EudtSMNAYD2UXil9M96t-127" vertex="1">
          <mxGeometry y="30" width="120" height="30" as="geometry" />
        </mxCell>
        <mxCell id="EudtSMNAYD2UXil9M96t-131" value="ERR" style="whiteSpace=wrap;html=1;rounded=0;fillColor=#f8cecc;strokeColor=#b85450;" parent="1" vertex="1">
          <mxGeometry x="1320" y="1100" width="120" height="60" as="geometry" />
        </mxCell>
        <mxCell id="EudtSMNAYD2UXil9M96t-133" value="ERR" style="whiteSpace=wrap;html=1;rounded=0;fillColor=#f8cecc;strokeColor=#b85450;" parent="1" vertex="1">
          <mxGeometry x="1560" y="1100" width="120" height="60" as="geometry" />
        </mxCell>
      </root>
    </mxGraphModel>
  </diagram>
  <diagram id="rzDENO8MqjZUDK1LVBN-" name="ppl2">
    <mxGraphModel dx="1205" dy="181" grid="1" gridSize="10" guides="1" tooltips="1" connect="1" arrows="1" fold="1" page="1" pageScale="1" pageWidth="827" pageHeight="1169" math="0" shadow="0">
      <root>
        <mxCell id="0" />
        <mxCell id="1" parent="0" />
        <mxCell id="4sBezoMhmKj3X2lku0w--1" value="" style="rounded=0;whiteSpace=wrap;html=1;" vertex="1" parent="1">
          <mxGeometry x="360" y="1500" width="1080" height="390" as="geometry" />
        </mxCell>
        <mxCell id="4sBezoMhmKj3X2lku0w--2" value="&lt;div&gt;resources&lt;/div&gt;&lt;div&gt;&lt;i&gt;queue&lt;/i&gt;&lt;/div&gt;&lt;div&gt;&lt;i&gt;cores&lt;br&gt;&lt;/i&gt;&lt;/div&gt;" style="rounded=0;whiteSpace=wrap;html=1;shape=cylinder3;boundedLbl=1;backgroundOutline=1;size=15;" vertex="1" parent="1">
          <mxGeometry x="570" y="1910" width="120" height="80" as="geometry" />
        </mxCell>
        <mxCell id="4sBezoMhmKj3X2lku0w--3" value="&lt;div&gt;data&lt;/div&gt;&lt;div&gt;&lt;i&gt;执行进度&lt;/i&gt;&lt;br&gt;&lt;/div&gt;" style="shape=cylinder3;whiteSpace=wrap;html=1;boundedLbl=1;fontStyle=1;backgroundOutline=1;size=15;" vertex="1" parent="1">
          <mxGeometry x="920" y="1910" width="120" height="80" as="geometry" />
        </mxCell>
        <mxCell id="4sBezoMhmKj3X2lku0w--4" style="edgeStyle=none;curved=1;rounded=0;orthogonalLoop=1;jettySize=auto;html=1;fontFamily=Helvetica;fontSize=12;fontColor=default;autosize=1;resizable=0;startSize=8;endSize=8;fillColor=#dae8fc;strokeColor=#6c8ebf;" edge="1" parent="1" source="4sBezoMhmKj3X2lku0w--7" target="4sBezoMhmKj3X2lku0w--23">
          <mxGeometry relative="1" as="geometry" />
        </mxCell>
        <mxCell id="4sBezoMhmKj3X2lku0w--5" value="tag不重复" style="edgeLabel;html=1;align=center;verticalAlign=middle;resizable=0;points=[];fontSize=12;rounded=0;strokeColor=default;fontFamily=Helvetica;fontColor=default;fillColor=default;" vertex="1" connectable="0" parent="4sBezoMhmKj3X2lku0w--4">
          <mxGeometry x="-0.2953" y="-1" relative="1" as="geometry">
            <mxPoint x="8" y="9" as="offset" />
          </mxGeometry>
        </mxCell>
        <mxCell id="4sBezoMhmKj3X2lku0w--6" style="edgeStyle=none;curved=1;rounded=0;orthogonalLoop=1;jettySize=auto;html=1;fontFamily=Helvetica;fontSize=12;fontColor=default;autosize=1;resizable=0;startSize=8;endSize=8;fillColor=#d5e8d4;strokeColor=#82b366;" edge="1" parent="1" source="4sBezoMhmKj3X2lku0w--7" target="4sBezoMhmKj3X2lku0w--18">
          <mxGeometry relative="1" as="geometry" />
        </mxCell>
        <mxCell id="JjC8GmDzCouIF5yGvR2P-2" value="1" style="edgeLabel;html=1;align=center;verticalAlign=middle;resizable=0;points=[];fontSize=12;" vertex="1" connectable="0" parent="4sBezoMhmKj3X2lku0w--6">
          <mxGeometry x="-0.3429" relative="1" as="geometry">
            <mxPoint y="1" as="offset" />
          </mxGeometry>
        </mxCell>
        <mxCell id="4sBezoMhmKj3X2lku0w--7" value="&lt;div&gt;TODO&lt;/div&gt;" style="rounded=0;whiteSpace=wrap;html=1;fillColor=#d5e8d4;strokeColor=#82b366;" vertex="1" parent="1">
          <mxGeometry x="461" y="1550" width="120" height="60" as="geometry" />
        </mxCell>
        <mxCell id="4sBezoMhmKj3X2lku0w--8" style="edgeStyle=none;curved=1;rounded=0;orthogonalLoop=1;jettySize=auto;html=1;fontFamily=Helvetica;fontSize=12;fontColor=default;autosize=1;resizable=0;startSize=8;endSize=8;fillColor=#dae8fc;strokeColor=#6c8ebf;" edge="1" parent="1" source="4sBezoMhmKj3X2lku0w--9" target="4sBezoMhmKj3X2lku0w--23">
          <mxGeometry relative="1" as="geometry" />
        </mxCell>
        <mxCell id="JjC8GmDzCouIF5yGvR2P-4" value="3" style="edgeLabel;html=1;align=center;verticalAlign=middle;resizable=0;points=[];fontSize=12;" vertex="1" connectable="0" parent="4sBezoMhmKj3X2lku0w--8">
          <mxGeometry x="-0.3143" y="5" relative="1" as="geometry">
            <mxPoint x="-5" y="1" as="offset" />
          </mxGeometry>
        </mxCell>
        <mxCell id="JjC8GmDzCouIF5yGvR2P-5" style="edgeStyle=none;curved=1;rounded=0;orthogonalLoop=1;jettySize=auto;html=1;exitX=0.5;exitY=1;exitDx=0;exitDy=0;fontSize=12;startSize=8;endSize=8;fillColor=#d5e8d4;strokeColor=#82b366;" edge="1" parent="1" source="4sBezoMhmKj3X2lku0w--9" target="4sBezoMhmKj3X2lku0w--18">
          <mxGeometry relative="1" as="geometry" />
        </mxCell>
        <mxCell id="JjC8GmDzCouIF5yGvR2P-6" value="only delete" style="edgeLabel;html=1;align=center;verticalAlign=middle;resizable=0;points=[];fontSize=12;" vertex="1" connectable="0" parent="JjC8GmDzCouIF5yGvR2P-5">
          <mxGeometry x="0.4622" y="5" relative="1" as="geometry">
            <mxPoint as="offset" />
          </mxGeometry>
        </mxCell>
        <mxCell id="4sBezoMhmKj3X2lku0w--9" value="&lt;div&gt;PRIORITY&lt;/div&gt;" style="rounded=0;whiteSpace=wrap;html=1;fillColor=#d5e8d4;strokeColor=#82b366;" vertex="1" parent="1">
          <mxGeometry x="581" y="1550" width="120" height="60" as="geometry" />
        </mxCell>
        <mxCell id="4sBezoMhmKj3X2lku0w--10" value="" style="edgeStyle=none;curved=1;rounded=0;orthogonalLoop=1;jettySize=auto;html=1;fontFamily=Helvetica;fontSize=12;fontColor=default;startSize=8;endSize=8;" edge="1" parent="1" source="4sBezoMhmKj3X2lku0w--11" target="4sBezoMhmKj3X2lku0w--13">
          <mxGeometry relative="1" as="geometry" />
        </mxCell>
        <mxCell id="4sBezoMhmKj3X2lku0w--11" value="COLLECT" style="rounded=0;whiteSpace=wrap;html=1;" vertex="1" parent="1">
          <mxGeometry x="950" y="1620" width="120" height="60" as="geometry" />
        </mxCell>
        <mxCell id="4sBezoMhmKj3X2lku0w--12" value="" style="edgeStyle=none;curved=1;rounded=0;orthogonalLoop=1;jettySize=auto;html=1;fontFamily=Helvetica;fontSize=12;fontColor=default;startSize=8;endSize=8;" edge="1" parent="1" source="4sBezoMhmKj3X2lku0w--13" target="4sBezoMhmKj3X2lku0w--14">
          <mxGeometry relative="1" as="geometry" />
        </mxCell>
        <mxCell id="4sBezoMhmKj3X2lku0w--13" value="TRAIN" style="rounded=0;whiteSpace=wrap;html=1;" vertex="1" parent="1">
          <mxGeometry x="1110" y="1620" width="120" height="60" as="geometry" />
        </mxCell>
        <mxCell id="4sBezoMhmKj3X2lku0w--14" value="PRED" style="rounded=0;whiteSpace=wrap;html=1;" vertex="1" parent="1">
          <mxGeometry x="1270" y="1620" width="120" height="60" as="geometry" />
        </mxCell>
        <mxCell id="4sBezoMhmKj3X2lku0w--15" style="edgeStyle=none;curved=1;rounded=0;orthogonalLoop=1;jettySize=auto;html=1;fontSize=12;startSize=8;endSize=8;endArrow=open;endFill=0;" edge="1" parent="1" source="4sBezoMhmKj3X2lku0w--16" target="4sBezoMhmKj3X2lku0w--46">
          <mxGeometry relative="1" as="geometry" />
        </mxCell>
        <mxCell id="4sBezoMhmKj3X2lku0w--16" value="Scheduler" style="html=1;whiteSpace=wrap;rounded=0;align=center;verticalAlign=middle;fontFamily=Helvetica;fontSize=12;fillColor=#dae8fc;strokeColor=#6c8ebf;" vertex="1" parent="1">
          <mxGeometry x="670" y="2110" width="110" height="50" as="geometry" />
        </mxCell>
        <mxCell id="4sBezoMhmKj3X2lku0w--17" value="" style="edgeStyle=none;curved=1;rounded=0;orthogonalLoop=1;jettySize=auto;html=1;fontFamily=Helvetica;fontSize=12;fontColor=default;startSize=8;endSize=8;endArrow=open;endFill=0;" edge="1" parent="1" source="4sBezoMhmKj3X2lku0w--46" target="4sBezoMhmKj3X2lku0w--35">
          <mxGeometry relative="1" as="geometry" />
        </mxCell>
        <mxCell id="4sBezoMhmKj3X2lku0w--18" value="&lt;div&gt;DELETE&lt;/div&gt;&lt;div&gt;——&lt;br&gt;&lt;/div&gt;&lt;div&gt;SKIPPED&lt;/div&gt;" style="rounded=0;whiteSpace=wrap;html=1;fillColor=#f5f5f5;strokeColor=#666666;fontColor=#333333;" vertex="1" parent="1">
          <mxGeometry x="461" y="1790" width="120" height="60" as="geometry" />
        </mxCell>
        <mxCell id="4sBezoMhmKj3X2lku0w--19" style="edgeStyle=none;curved=1;rounded=0;orthogonalLoop=1;jettySize=auto;html=1;fontFamily=Helvetica;fontSize=12;fontColor=default;autosize=1;resizable=0;startSize=8;endSize=8;dashed=1;fillColor=#e1d5e7;strokeColor=#9673a6;" edge="1" parent="1" source="4sBezoMhmKj3X2lku0w--20" target="4sBezoMhmKj3X2lku0w--27">
          <mxGeometry relative="1" as="geometry" />
        </mxCell>
        <mxCell id="4sBezoMhmKj3X2lku0w--20" value="&lt;div&gt;ERR&lt;/div&gt;" style="rounded=0;whiteSpace=wrap;html=1;fillColor=#ffe6cc;strokeColor=#d79b00;" vertex="1" parent="1">
          <mxGeometry x="730" y="1670" width="120" height="60" as="geometry" />
        </mxCell>
        <mxCell id="4sBezoMhmKj3X2lku0w--21" style="edgeStyle=none;curved=1;rounded=0;orthogonalLoop=1;jettySize=auto;html=1;fontFamily=Helvetica;fontSize=12;fontColor=default;autosize=1;resizable=0;startSize=8;endSize=8;fillColor=#ffe6cc;strokeColor=#d79b00;" edge="1" parent="1" source="4sBezoMhmKj3X2lku0w--23" target="4sBezoMhmKj3X2lku0w--24">
          <mxGeometry relative="1" as="geometry" />
        </mxCell>
        <mxCell id="JjC8GmDzCouIF5yGvR2P-3" value="2" style="edgeLabel;html=1;align=center;verticalAlign=middle;resizable=0;points=[];fontSize=12;" vertex="1" connectable="0" parent="4sBezoMhmKj3X2lku0w--21">
          <mxGeometry x="-0.3143" y="3" relative="1" as="geometry">
            <mxPoint x="-4" y="1" as="offset" />
          </mxGeometry>
        </mxCell>
        <mxCell id="4sBezoMhmKj3X2lku0w--22" style="edgeStyle=none;curved=1;rounded=0;orthogonalLoop=1;jettySize=auto;html=1;fontFamily=Helvetica;fontSize=12;fontColor=default;autosize=1;resizable=0;startSize=8;endSize=8;fillColor=#ffe6cc;strokeColor=#d79b00;" edge="1" parent="1" source="4sBezoMhmKj3X2lku0w--23" target="4sBezoMhmKj3X2lku0w--20">
          <mxGeometry relative="1" as="geometry" />
        </mxCell>
        <mxCell id="4sBezoMhmKj3X2lku0w--23" value="&lt;div&gt;RUNNING&lt;/div&gt;&lt;div&gt;&lt;div&gt;&lt;i&gt;size(cores)&lt;/i&gt;&lt;/div&gt;&lt;/div&gt;" style="rounded=0;whiteSpace=wrap;html=1;fillColor=#dae8fc;strokeColor=#6c8ebf;" vertex="1" parent="1">
          <mxGeometry x="581" y="1670" width="120" height="60" as="geometry" />
        </mxCell>
        <mxCell id="4sBezoMhmKj3X2lku0w--24" value="DONE" style="rounded=0;whiteSpace=wrap;html=1;fillColor=#ffe6cc;strokeColor=#d79b00;" vertex="1" parent="1">
          <mxGeometry x="581" y="1790" width="120" height="60" as="geometry" />
        </mxCell>
        <mxCell id="4sBezoMhmKj3X2lku0w--26" style="edgeStyle=none;curved=1;rounded=0;orthogonalLoop=1;jettySize=auto;html=1;fontFamily=Helvetica;fontSize=12;fontColor=default;autosize=1;resizable=0;startSize=8;endSize=8;fillColor=#dae8fc;strokeColor=#6c8ebf;" edge="1" parent="1" source="4sBezoMhmKj3X2lku0w--27" target="4sBezoMhmKj3X2lku0w--23">
          <mxGeometry relative="1" as="geometry" />
        </mxCell>
        <mxCell id="4sBezoMhmKj3X2lku0w--27" value="RERUN" style="rounded=0;whiteSpace=wrap;html=1;fillColor=#d5e8d4;strokeColor=#82b366;" vertex="1" parent="1">
          <mxGeometry x="730" y="1550" width="120" height="60" as="geometry" />
        </mxCell>
        <mxCell id="4sBezoMhmKj3X2lku0w--28" value="任务状态" style="text;html=1;align=center;verticalAlign=middle;resizable=0;points=[];autosize=1;fontSize=12;fontFamily=Helvetica;fillColor=#f5f5f5;fontColor=#333333;strokeColor=#666666;" vertex="1" parent="1">
          <mxGeometry x="830" y="1860" width="70" height="30" as="geometry" />
        </mxCell>
        <mxCell id="4sBezoMhmKj3X2lku0w--29" value="任务进度" style="text;html=1;align=center;verticalAlign=middle;resizable=0;points=[];autosize=1;fontSize=12;fontFamily=Helvetica;fillColor=#f5f5f5;fontColor=#333333;strokeColor=#666666;" vertex="1" parent="1">
          <mxGeometry x="900" y="1860" width="70" height="30" as="geometry" />
        </mxCell>
        <mxCell id="4sBezoMhmKj3X2lku0w--30" value="" style="group" vertex="1" connectable="0" parent="1">
          <mxGeometry x="760" y="1910" width="120" height="140" as="geometry" />
        </mxCell>
        <mxCell id="4sBezoMhmKj3X2lku0w--31" value="&lt;div&gt;proc&lt;/div&gt;&lt;div&gt;&lt;i&gt;进程状态&lt;/i&gt;&lt;br&gt;&lt;/div&gt;" style="rounded=0;whiteSpace=wrap;html=1;shape=cylinder3;boundedLbl=1;backgroundOutline=1;size=15;" vertex="1" parent="4sBezoMhmKj3X2lku0w--30">
          <mxGeometry width="120" height="80" as="geometry" />
        </mxCell>
        <mxCell id="4sBezoMhmKj3X2lku0w--32" value="jid&lt;div&gt;pid&lt;br&gt;&lt;/div&gt;" style="text;html=1;align=left;verticalAlign=middle;resizable=0;points=[];autosize=1;strokeColor=none;fillColor=none;fontSize=12;fontFamily=Helvetica;fontColor=default;" vertex="1" parent="4sBezoMhmKj3X2lku0w--30">
          <mxGeometry y="90" width="40" height="40" as="geometry" />
        </mxCell>
        <mxCell id="4sBezoMhmKj3X2lku0w--33" value="" style="endArrow=none;dashed=1;html=1;rounded=0;fontFamily=Helvetica;fontSize=12;fontColor=default;autosize=1;resizable=0;startSize=8;endSize=8;curved=1;" edge="1" parent="1">
          <mxGeometry width="50" height="50" relative="1" as="geometry">
            <mxPoint x="900" y="2090" as="sourcePoint" />
            <mxPoint x="899.6999999999999" y="1435" as="targetPoint" />
          </mxGeometry>
        </mxCell>
        <mxCell id="4sBezoMhmKj3X2lku0w--35" value="Step" style="whiteSpace=wrap;html=1;align=center;rounded=0;verticalAlign=middle;fontFamily=Helvetica;fontSize=12;fillColor=#dae8fc;strokeColor=#6c8ebf;" vertex="1" parent="1">
          <mxGeometry x="930" y="2020" width="110" height="50" as="geometry" />
        </mxCell>
        <mxCell id="4sBezoMhmKj3X2lku0w--40" value="Actor" style="shape=umlActor;verticalLabelPosition=bottom;verticalAlign=top;html=1;outlineConnect=0;rounded=0;strokeColor=#9673a6;align=center;fontFamily=Helvetica;fontSize=12;fillColor=#e1d5e7;" vertex="1" parent="1">
          <mxGeometry x="855" y="1610" width="20" height="40" as="geometry" />
        </mxCell>
        <mxCell id="4sBezoMhmKj3X2lku0w--41" value="" style="sketch=0;pointerEvents=1;shadow=0;dashed=0;html=1;labelPosition=center;verticalLabelPosition=bottom;verticalAlign=top;outlineConnect=0;align=center;shape=mxgraph.office.concepts.clock;rounded=0;fontFamily=Helvetica;fontSize=12;" vertex="1" parent="1">
          <mxGeometry x="657" y="2098" width="28" height="28" as="geometry" />
        </mxCell>
        <mxCell id="4sBezoMhmKj3X2lku0w--42" style="edgeStyle=none;curved=1;rounded=0;orthogonalLoop=1;jettySize=auto;html=1;fontFamily=Helvetica;fontSize=12;fontColor=default;startSize=8;endSize=8;fillColor=#e1d5e7;strokeColor=#9673a6;dashed=1;" edge="1" parent="1" source="4sBezoMhmKj3X2lku0w--44" target="4sBezoMhmKj3X2lku0w--7">
          <mxGeometry relative="1" as="geometry" />
        </mxCell>
        <mxCell id="4sBezoMhmKj3X2lku0w--43" style="edgeStyle=none;curved=1;rounded=0;orthogonalLoop=1;jettySize=auto;html=1;fontFamily=Helvetica;fontSize=12;fontColor=default;startSize=8;endSize=8;fillColor=#e1d5e7;strokeColor=#9673a6;dashed=1;" edge="1" parent="1" source="4sBezoMhmKj3X2lku0w--44" target="4sBezoMhmKj3X2lku0w--9">
          <mxGeometry relative="1" as="geometry" />
        </mxCell>
        <mxCell id="4sBezoMhmKj3X2lku0w--44" value="Actor" style="shape=umlActor;verticalLabelPosition=bottom;verticalAlign=top;html=1;outlineConnect=0;rounded=0;strokeColor=#9673a6;align=center;fontFamily=Helvetica;fontSize=12;fillColor=#e1d5e7;" vertex="1" parent="1">
          <mxGeometry x="572" y="1420" width="20" height="40" as="geometry" />
        </mxCell>
        <mxCell id="4sBezoMhmKj3X2lku0w--46" value="Job" style="whiteSpace=wrap;html=1;align=center;rounded=0;verticalAlign=middle;fontFamily=Helvetica;fontSize=12;fillColor=#dae8fc;strokeColor=#6c8ebf;" vertex="1" parent="1">
          <mxGeometry x="930" y="2110" width="110" height="50" as="geometry" />
        </mxCell>
      </root>
    </mxGraphModel>
  </diagram>
  <diagram id="ZNRsw4cHIvj9eMeeBs-y" name="ppl3 v2.0.0">
    <mxGraphModel dx="874" dy="919" grid="1" gridSize="10" guides="1" tooltips="1" connect="1" arrows="1" fold="1" page="1" pageScale="1" pageWidth="827" pageHeight="1169" math="0" shadow="0">
      <root>
        <mxCell id="0" />
        <mxCell id="1" parent="0" />
        <mxCell id="qdSW9s-Mkc92wH9gqjpS-20" value="" style="rounded=0;whiteSpace=wrap;html=1;strokeColor=default;align=center;verticalAlign=middle;fontFamily=Helvetica;fontSize=12;fontColor=default;fillColor=default;" vertex="1" parent="1">
          <mxGeometry x="459" y="300" width="161" height="350" as="geometry" />
        </mxCell>
        <mxCell id="qdSW9s-Mkc92wH9gqjpS-9" value="" style="endArrow=none;dashed=1;html=1;rounded=0;fontFamily=Helvetica;fontSize=12;fontColor=default;autosize=1;resizable=0;startSize=8;endSize=8;curved=1;" edge="1" parent="1">
          <mxGeometry width="50" height="50" relative="1" as="geometry">
            <mxPoint x="360" y="840" as="sourcePoint" />
            <mxPoint x="360" y="290" as="targetPoint" />
          </mxGeometry>
        </mxCell>
        <mxCell id="qdSW9s-Mkc92wH9gqjpS-18" style="edgeStyle=none;curved=1;rounded=0;orthogonalLoop=1;jettySize=auto;html=1;fontFamily=Helvetica;fontSize=12;fontColor=default;autosize=1;resizable=0;startSize=8;endSize=8;" edge="1" parent="1" source="qdSW9s-Mkc92wH9gqjpS-1" target="qdSW9s-Mkc92wH9gqjpS-11">
          <mxGeometry relative="1" as="geometry" />
        </mxCell>
        <mxCell id="qdSW9s-Mkc92wH9gqjpS-35" value="system" style="edgeLabel;html=1;align=center;verticalAlign=middle;resizable=0;points=[];fontSize=12;rounded=0;strokeColor=default;fontFamily=Helvetica;fontColor=default;fillColor=default;" vertex="1" connectable="0" parent="qdSW9s-Mkc92wH9gqjpS-18">
          <mxGeometry x="-0.1478" y="-3" relative="1" as="geometry">
            <mxPoint x="4" y="-3" as="offset" />
          </mxGeometry>
        </mxCell>
        <mxCell id="qdSW9s-Mkc92wH9gqjpS-1" value="scheduler" style="rounded=0;whiteSpace=wrap;html=1;" vertex="1" parent="1">
          <mxGeometry x="130" y="320" width="120" height="60" as="geometry" />
        </mxCell>
        <mxCell id="qdSW9s-Mkc92wH9gqjpS-4" value="status management" style="text;html=1;align=center;verticalAlign=middle;resizable=0;points=[];autosize=1;strokeColor=#666666;fillColor=#f5f5f5;fontSize=12;fontColor=#333333;" vertex="1" parent="1">
          <mxGeometry x="80" y="480" width="130" height="30" as="geometry" />
        </mxCell>
        <mxCell id="qdSW9s-Mkc92wH9gqjpS-5" value="&lt;div&gt;resources.cfg&lt;/div&gt;" style="whiteSpace=wrap;html=1;shape=mxgraph.basic.document;align=center;verticalAlign=middle;fontFamily=Helvetica;fontSize=12;fontColor=default;autosize=1;resizable=0;fillColor=none;gradientColor=none;" vertex="1" parent="1">
          <mxGeometry x="80" y="560" width="100" height="30" as="geometry" />
        </mxCell>
        <mxCell id="qdSW9s-Mkc92wH9gqjpS-6" value="&lt;div&gt;proc&lt;/div&gt;" style="whiteSpace=wrap;html=1;shape=mxgraph.basic.document;align=center;verticalAlign=middle;fontFamily=Helvetica;fontSize=12;fontColor=default;autosize=1;resizable=0;fillColor=none;gradientColor=none;" vertex="1" parent="1">
          <mxGeometry x="80" y="520" width="50" height="30" as="geometry" />
        </mxCell>
        <mxCell id="qdSW9s-Mkc92wH9gqjpS-31" value="" style="edgeStyle=none;curved=1;rounded=0;orthogonalLoop=1;jettySize=auto;html=1;fontFamily=Helvetica;fontSize=12;fontColor=default;autosize=1;resizable=0;startSize=8;endSize=8;" edge="1" parent="1" source="qdSW9s-Mkc92wH9gqjpS-11" target="qdSW9s-Mkc92wH9gqjpS-30">
          <mxGeometry relative="1" as="geometry" />
        </mxCell>
        <mxCell id="qdSW9s-Mkc92wH9gqjpS-32" value="" style="edgeStyle=none;curved=1;rounded=0;orthogonalLoop=1;jettySize=auto;html=1;fontFamily=Helvetica;fontSize=12;fontColor=default;autosize=1;resizable=0;startSize=8;endSize=8;" edge="1" parent="1" source="qdSW9s-Mkc92wH9gqjpS-11" target="qdSW9s-Mkc92wH9gqjpS-30">
          <mxGeometry relative="1" as="geometry" />
        </mxCell>
        <mxCell id="qdSW9s-Mkc92wH9gqjpS-34" style="edgeStyle=none;curved=1;rounded=0;orthogonalLoop=1;jettySize=auto;html=1;fontFamily=Helvetica;fontSize=12;fontColor=default;autosize=1;resizable=0;startSize=8;endSize=8;" edge="1" parent="1" source="qdSW9s-Mkc92wH9gqjpS-11" target="qdSW9s-Mkc92wH9gqjpS-33">
          <mxGeometry relative="1" as="geometry" />
        </mxCell>
        <mxCell id="qdSW9s-Mkc92wH9gqjpS-37" value="" style="edgeStyle=none;curved=1;rounded=0;orthogonalLoop=1;jettySize=auto;html=1;fontFamily=Helvetica;fontSize=12;fontColor=default;autosize=1;resizable=0;startSize=8;endSize=8;" edge="1" parent="1" source="qdSW9s-Mkc92wH9gqjpS-11" target="qdSW9s-Mkc92wH9gqjpS-36">
          <mxGeometry relative="1" as="geometry" />
        </mxCell>
        <mxCell id="qdSW9s-Mkc92wH9gqjpS-11" value="&lt;div&gt;runner&lt;/div&gt;" style="rounded=0;whiteSpace=wrap;html=1;strokeColor=default;align=center;verticalAlign=middle;fontFamily=Helvetica;fontSize=12;fontColor=default;fillColor=default;" vertex="1" parent="1">
          <mxGeometry x="480" y="320" width="120" height="60" as="geometry" />
        </mxCell>
        <mxCell id="qdSW9s-Mkc92wH9gqjpS-12" value="data" style="shape=cylinder3;whiteSpace=wrap;boundedLbl=1;backgroundOutline=1;size=15;rounded=0;strokeColor=default;align=center;verticalAlign=middle;fontFamily=Helvetica;fontSize=12;fontColor=default;fillColor=none;html=1;autosize=1;resizable=0;gradientColor=none;" vertex="1" parent="1">
          <mxGeometry x="509.5" y="490" width="60" height="80" as="geometry" />
        </mxCell>
        <mxCell id="qdSW9s-Mkc92wH9gqjpS-14" value="&lt;div&gt;resource management&lt;/div&gt;" style="text;html=1;align=center;verticalAlign=middle;resizable=0;points=[];autosize=1;strokeColor=#666666;fillColor=#f5f5f5;fontSize=12;fontFamily=Helvetica;fontColor=#333333;" vertex="1" parent="1">
          <mxGeometry x="80" y="630" width="140" height="30" as="geometry" />
        </mxCell>
        <mxCell id="qdSW9s-Mkc92wH9gqjpS-16" value="monitor" style="rounded=0;whiteSpace=wrap;html=1;strokeColor=default;align=center;verticalAlign=middle;fontFamily=Helvetica;fontSize=12;fontColor=default;fillColor=default;" vertex="1" parent="1">
          <mxGeometry x="480" y="400" width="120" height="60" as="geometry" />
        </mxCell>
        <mxCell id="qdSW9s-Mkc92wH9gqjpS-17" value="&lt;div&gt;config file&lt;br&gt;&lt;/div&gt;&lt;div&gt;core_id&lt;/div&gt;&lt;div&gt;ssd_dir&lt;/div&gt;&lt;div&gt;ssd_limit&lt;/div&gt;" style="text;html=1;align=center;verticalAlign=middle;resizable=0;points=[];autosize=1;strokeColor=none;fillColor=none;fontSize=12;fontFamily=Helvetica;fontColor=default;" vertex="1" parent="1">
          <mxGeometry x="379" y="270" width="70" height="70" as="geometry" />
        </mxCell>
        <mxCell id="qdSW9s-Mkc92wH9gqjpS-19" value="INTERFACE" style="text;html=1;align=center;verticalAlign=middle;resizable=0;points=[];autosize=1;strokeColor=none;fillColor=none;fontSize=12;fontFamily=Helvetica;fontColor=default;" vertex="1" parent="1">
          <mxGeometry x="369" y="200" width="90" height="30" as="geometry" />
        </mxCell>
        <mxCell id="qdSW9s-Mkc92wH9gqjpS-29" value="" style="group" vertex="1" connectable="0" parent="1">
          <mxGeometry x="290" y="400" width="70" height="42" as="geometry" />
        </mxCell>
        <mxCell id="qdSW9s-Mkc92wH9gqjpS-21" value="" style="endArrow=classic;html=1;rounded=0;fontFamily=Helvetica;fontSize=12;fontColor=default;autosize=1;resizable=0;curved=1;shape=flexArrow;" edge="1" parent="qdSW9s-Mkc92wH9gqjpS-29">
          <mxGeometry width="50" height="50" relative="1" as="geometry">
            <mxPoint x="70" as="sourcePoint" />
            <mxPoint as="targetPoint" />
          </mxGeometry>
        </mxCell>
        <mxCell id="qdSW9s-Mkc92wH9gqjpS-28" value="ERR" style="text;html=1;align=center;verticalAlign=middle;resizable=0;points=[];autosize=1;strokeColor=none;fillColor=none;fontSize=12;fontFamily=Helvetica;fontColor=default;" vertex="1" parent="qdSW9s-Mkc92wH9gqjpS-29">
          <mxGeometry x="12" y="12" width="50" height="30" as="geometry" />
        </mxCell>
        <mxCell id="qdSW9s-Mkc92wH9gqjpS-30" value="train" style="whiteSpace=wrap;html=1;rounded=0;" vertex="1" parent="1">
          <mxGeometry x="740" y="400" width="120" height="60" as="geometry" />
        </mxCell>
        <mxCell id="qdSW9s-Mkc92wH9gqjpS-33" value="pred" style="whiteSpace=wrap;html=1;rounded=0;" vertex="1" parent="1">
          <mxGeometry x="740" y="480" width="120" height="60" as="geometry" />
        </mxCell>
        <mxCell id="qdSW9s-Mkc92wH9gqjpS-36" value="collect" style="whiteSpace=wrap;html=1;rounded=0;" vertex="1" parent="1">
          <mxGeometry x="740" y="320" width="120" height="60" as="geometry" />
        </mxCell>
      </root>
    </mxGraphModel>
  </diagram>
  <diagram id="S9keehsslUyDIPnyzTGj" name="ppl4">
    <mxGraphModel dx="861" dy="953" grid="1" gridSize="10" guides="1" tooltips="1" connect="1" arrows="1" fold="1" page="1" pageScale="1" pageWidth="827" pageHeight="1169" math="0" shadow="0">
      <root>
        <mxCell id="0" />
        <mxCell id="1" parent="0" />
        <mxCell id="x1p1duhrlDKBPW2bh0um-1" value="调度属性" style="rounded=0;whiteSpace=wrap;html=1;strokeColor=default;align=center;verticalAlign=middle;fontFamily=Comic Sans MS;fontSize=12;fontColor=default;fillColor=default;shape=note;backgroundOutline=1;darkOpacity=0.05;" vertex="1" parent="1">
          <mxGeometry x="160" y="120" width="120" height="60" as="geometry" />
        </mxCell>
        <mxCell id="x1p1duhrlDKBPW2bh0um-2" value="运行属性" style="rounded=0;whiteSpace=wrap;html=1;strokeColor=default;align=center;verticalAlign=middle;fontFamily=Comic Sans MS;fontSize=12;fontColor=default;fillColor=default;shape=note;backgroundOutline=1;darkOpacity=0.05;" vertex="1" parent="1">
          <mxGeometry x="460" y="130" width="120" height="60" as="geometry" />
        </mxCell>
        <mxCell id="x1p1duhrlDKBPW2bh0um-3" value="" style="endArrow=none;dashed=1;html=1;dashPattern=1 3;strokeWidth=2;rounded=0;fontFamily=Comic Sans MS;fontSize=12;fontColor=default;startSize=8;endSize=8;curved=1;" edge="1" parent="1">
          <mxGeometry width="50" height="50" relative="1" as="geometry">
            <mxPoint x="370" y="750" as="sourcePoint" />
            <mxPoint x="370" y="120" as="targetPoint" />
          </mxGeometry>
        </mxCell>
        <mxCell id="x1p1duhrlDKBPW2bh0um-4" value="调度器" style="rounded=0;whiteSpace=wrap;html=1;strokeColor=default;align=center;verticalAlign=middle;fontFamily=Comic Sans MS;fontSize=12;fontColor=default;fillColor=default;" vertex="1" parent="1">
          <mxGeometry x="160" y="300" width="120" height="60" as="geometry" />
        </mxCell>
        <mxCell id="x1p1duhrlDKBPW2bh0um-5" value="执行器" style="rounded=0;whiteSpace=wrap;html=1;strokeColor=default;align=center;verticalAlign=middle;fontFamily=Comic Sans MS;fontSize=12;fontColor=default;fillColor=default;" vertex="1" parent="1">
          <mxGeometry x="460" y="300" width="120" height="60" as="geometry" />
        </mxCell>
        <mxCell id="x1p1duhrlDKBPW2bh0um-6" value="" style="endArrow=none;dashed=1;html=1;dashPattern=1 3;strokeWidth=2;rounded=0;fontFamily=Comic Sans MS;fontSize=12;fontColor=default;startSize=8;endSize=8;curved=1;" edge="1" parent="1">
          <mxGeometry width="50" height="50" relative="1" as="geometry">
            <mxPoint x="670" y="750" as="sourcePoint" />
            <mxPoint x="670" y="120" as="targetPoint" />
          </mxGeometry>
        </mxCell>
        <mxCell id="x1p1duhrlDKBPW2bh0um-7" value="数据" style="shape=note;whiteSpace=wrap;html=1;backgroundOutline=1;darkOpacity=0.05;rounded=0;strokeColor=default;align=center;verticalAlign=middle;fontFamily=Comic Sans MS;fontSize=12;fontColor=default;fillColor=default;" vertex="1" parent="1">
          <mxGeometry x="870" y="320" width="80" height="100" as="geometry" />
        </mxCell>
        <mxCell id="x1p1duhrlDKBPW2bh0um-8" value="adapter" style="rounded=0;whiteSpace=wrap;html=1;strokeColor=default;align=center;verticalAlign=middle;fontFamily=Comic Sans MS;fontSize=12;fontColor=default;fillColor=default;" vertex="1" parent="1">
          <mxGeometry x="707" y="340" width="120" height="60" as="geometry" />
        </mxCell>
        <mxCell id="x1p1duhrlDKBPW2bh0um-9" value="流程控制器" style="rounded=0;whiteSpace=wrap;html=1;strokeColor=default;align=center;verticalAlign=middle;fontFamily=Comic Sans MS;fontSize=12;fontColor=default;fillColor=default;" vertex="1" parent="1">
          <mxGeometry x="460" y="390" width="120" height="60" as="geometry" />
        </mxCell>
      </root>
    </mxGraphModel>
  </diagram>
</mxfile>
